<mxfile host="65bd71144e">
    <diagram id="B2Imsyf_CLR86bu_pUIC" name="Page-1">
        <mxGraphModel dx="657" dy="437" grid="0" gridSize="10" guides="1" tooltips="1" connect="1" arrows="1" fold="1" page="1" pageScale="1" pageWidth="850" pageHeight="1100" math="0" shadow="0">
            <root>
                <mxCell id="0"/>
                <mxCell id="1" parent="0"/>
                <mxCell id="532" value="assumptions:&lt;br&gt;immutable records" style="text;html=1;strokeColor=none;fillColor=none;align=center;verticalAlign=middle;whiteSpace=wrap;rounded=0;" vertex="1" parent="1">
                    <mxGeometry x="51" y="88" width="120" height="20" as="geometry"/>
                </mxCell>
                <mxCell id="534" value="Disk as backup, (in memory is truth)" style="swimlane;" vertex="1" parent="1">
                    <mxGeometry x="207" y="39" width="323" height="354" as="geometry"/>
                </mxCell>
                <mxCell id="515" value="Reservoir" style="rounded=1;whiteSpace=wrap;html=1;" vertex="1" parent="534">
                    <mxGeometry x="41" y="160" width="120" height="60" as="geometry"/>
                </mxCell>
                <mxCell id="516" value="Source (hive box)" style="rounded=0;whiteSpace=wrap;html=1;" vertex="1" parent="534">
                    <mxGeometry x="41" y="261" width="120" height="60" as="geometry"/>
                </mxCell>
                <mxCell id="519" value=".save" style="edgeStyle=orthogonalEdgeStyle;rounded=0;orthogonalLoop=1;jettySize=auto;html=1;" edge="1" parent="534" source="515" target="516">
                    <mxGeometry relative="1" as="geometry"/>
                </mxCell>
                <mxCell id="518" value=".save" style="edgeStyle=orthogonalEdgeStyle;rounded=0;orthogonalLoop=1;jettySize=auto;html=1;entryX=0.5;entryY=0;entryDx=0;entryDy=0;" edge="1" parent="534" source="517" target="515">
                    <mxGeometry relative="1" as="geometry"/>
                </mxCell>
                <mxCell id="517" value="Process (service)" style="ellipse;whiteSpace=wrap;html=1;" vertex="1" parent="534">
                    <mxGeometry x="41" y="39" width="120" height="80" as="geometry"/>
                </mxCell>
                <mxCell id="523" value="save in box" style="text;html=1;strokeColor=none;fillColor=none;align=center;verticalAlign=middle;whiteSpace=wrap;rounded=0;" vertex="1" parent="534">
                    <mxGeometry x="182" y="281" width="120" height="20" as="geometry"/>
                </mxCell>
                <mxCell id="522" value="save in memory&lt;br&gt;(save indexes?)" style="text;html=1;strokeColor=none;fillColor=none;align=center;verticalAlign=middle;whiteSpace=wrap;rounded=0;" vertex="1" parent="534">
                    <mxGeometry x="177" y="172" width="120" height="36" as="geometry"/>
                </mxCell>
                <mxCell id="521" value="send data to res" style="text;html=1;strokeColor=none;fillColor=none;align=center;verticalAlign=middle;whiteSpace=wrap;rounded=0;" vertex="1" parent="534">
                    <mxGeometry x="177" y="123" width="120" height="20" as="geometry"/>
                </mxCell>
                <mxCell id="536" value="Disk as single source of Truth" style="swimlane;" vertex="1" parent="1">
                    <mxGeometry x="535" y="39" width="308" height="354" as="geometry"/>
                </mxCell>
                <mxCell id="525" value="Reservoir" style="rounded=1;whiteSpace=wrap;html=1;" vertex="1" parent="536">
                    <mxGeometry x="17.5" y="157" width="120" height="60" as="geometry"/>
                </mxCell>
                <mxCell id="533" style="edgeStyle=orthogonalEdgeStyle;rounded=0;orthogonalLoop=1;jettySize=auto;html=1;exitX=1;exitY=0.5;exitDx=0;exitDy=0;entryX=1;entryY=0.5;entryDx=0;entryDy=0;" edge="1" parent="536" source="526" target="525">
                    <mxGeometry relative="1" as="geometry"/>
                </mxCell>
                <mxCell id="526" value="Source (hive box)" style="rounded=0;whiteSpace=wrap;html=1;" vertex="1" parent="536">
                    <mxGeometry x="17.5" y="258" width="120" height="60" as="geometry"/>
                </mxCell>
                <mxCell id="524" value=".save" style="edgeStyle=orthogonalEdgeStyle;rounded=0;orthogonalLoop=1;jettySize=auto;html=1;" edge="1" parent="536" source="525" target="526">
                    <mxGeometry relative="1" as="geometry"/>
                </mxCell>
                <mxCell id="527" value=".save" style="edgeStyle=orthogonalEdgeStyle;rounded=0;orthogonalLoop=1;jettySize=auto;html=1;entryX=0.5;entryY=0;entryDx=0;entryDy=0;" edge="1" parent="536" source="528" target="525">
                    <mxGeometry relative="1" as="geometry"/>
                </mxCell>
                <mxCell id="528" value="Process (service)" style="ellipse;whiteSpace=wrap;html=1;" vertex="1" parent="536">
                    <mxGeometry x="17.5" y="36" width="120" height="80" as="geometry"/>
                </mxCell>
                <mxCell id="529" value="send data to res" style="text;html=1;strokeColor=none;fillColor=none;align=center;verticalAlign=middle;whiteSpace=wrap;rounded=0;" vertex="1" parent="536">
                    <mxGeometry x="153.5" y="120" width="120" height="20" as="geometry"/>
                </mxCell>
                <mxCell id="530" value="saves to box,&lt;br&gt;listens to box to modify in memory&lt;br&gt;and updates indecies" style="text;html=1;strokeColor=none;fillColor=none;align=center;verticalAlign=middle;whiteSpace=wrap;rounded=0;" vertex="1" parent="536">
                    <mxGeometry x="170.5" y="208" width="120" height="63" as="geometry"/>
                </mxCell>
            </root>
        </mxGraphModel>
    </diagram>
</mxfile>